HIERARCHY
ROOT Hips
{
	OFFSET 0.000000 0.000000 0.000000 
	CHANNELS 6 Xposition Yposition Zposition Zrotation Yrotation Xrotation
	JOINT LeftUpLeg
	{
		OFFSET 1.363060 -1.794630 0.839290 
		CHANNELS 3 Zrotation Yrotation Xrotation
		JOINT LeftLeg
		{
			OFFSET 2.448110 -6.726130 0.000000 
			CHANNELS 3 Zrotation Yrotation Xrotation
			JOINT LeftFoot
			{
				OFFSET 2.562200 -7.039590 0.000000 
				CHANNELS 3 Zrotation Yrotation Xrotation
				JOINT LeftToeBase
				{
					OFFSET 0.157640 -0.433110 2.322550 
					CHANNELS 3 Zrotation Yrotation Xrotation
					End Site
					{
						OFFSET 0.000000 0.000000 0.000000 
					}
				}
			}
		}
	}
	JOINT RightUpLeg
	{
		OFFSET -1.305520 -1.794630 0.839290 
		CHANNELS 3 Zrotation Yrotation Xrotation
		JOINT RightLeg
		{
			OFFSET -2.542530 -6.985550 0.000000 
			CHANNELS 3 Zrotation Yrotation Xrotation
			JOINT RightFoot
			{
				OFFSET -2.568260 -7.056230 0.000000 
				CHANNELS 3 Zrotation Yrotation Xrotation
				JOINT RightToeBase
				{
					OFFSET -0.164730 -0.452590 2.363150 
					CHANNELS 3 Zrotation Yrotation Xrotation
					End Site
					{
						OFFSET 0.000000 0.000000 0.000000 
					}
				}
			}
		}
	}
	JOINT Spine
	{
		OFFSET 0.028270 2.035590 -0.193380 
		CHANNELS 3 Zrotation Yrotation Xrotation
		JOINT Spine1
		{
			OFFSET 0.056720 2.048850 -0.042750 
			CHANNELS 3 Zrotation Yrotation Xrotation
			JOINT Neck1
			{
				OFFSET -0.054170 1.746240 0.172020 
				CHANNELS 3 Zrotation Yrotation Xrotation
				JOINT Head
				{
					OFFSET 0.104070 1.761360 -0.123970 
					CHANNELS 3 Zrotation Yrotation Xrotation
					End Site
					{
						OFFSET 0.000000 0.000000 0.000000 
					}
				}
			}
			JOINT LeftArm
			{
				OFFSET 3.362410 1.200890 -0.311210 
				CHANNELS 3 Zrotation Yrotation Xrotation
				JOINT LeftForeArm
				{
					OFFSET 4.983000 -0.000000 -0.000000 
					CHANNELS 3 Zrotation Yrotation Xrotation
					JOINT LeftHand
					{
						OFFSET 3.483560 -0.000000 -0.000000 
						CHANNELS 3 Zrotation Yrotation Xrotation
						JOINT LeftHandIndex1
						{
							OFFSET 0.715260 -0.000000 -0.000000 
							CHANNELS 3 Zrotation Yrotation Xrotation
							End Site
							{
								OFFSET 0.000000 0.000000 0.000000 
							}
						}
					}
				}
			}
			JOINT RightArm
			{
				OFFSET -3.136600 1.374050 -0.404650 
				CHANNELS 3 Zrotation Yrotation Xrotation
				JOINT RightForeArm
				{
					OFFSET -5.241900 -0.000000 -0.000000 
					CHANNELS 3 Zrotation Yrotation Xrotation
					JOINT RightHand
					{
						OFFSET -3.444170 -0.000000 -0.000000 
						CHANNELS 3 Zrotation Yrotation Xrotation
						JOINT RightHandIndex1
						{
							OFFSET -0.622530 -0.000000 -0.000000 
							CHANNELS 3 Zrotation Yrotation Xrotation
							End Site
							{
								OFFSET 0.000000 0.000000 0.000000 
							}
						}
					}
				}
			}
		}
	}
}
MOTION
Frames: 18
Frame Time: 0.041667
15.073202 17.408068 -24.286366 4.963072 -29.073704 -1.332625 -6.606186 0.706857 -17.192761 3.526651 12.701648 39.094172 0.566846 2.226681 6.321721 2.071100 -9.012600 -25.834900 28.087125 -5.637727 -42.311861 -10.065761 -18.477421 60.511056 2.302211 -9.386838 0.795936 -0.261300 3.288400 -9.082700 -0.057790 -2.071195 -2.501298 0.032533 -0.857908 -5.910713 4.426680 -0.154902 10.844949 4.128700 -0.692500 9.205900 -80.474795 7.715606 48.858316 118.828407 -61.053376 -88.709698 -0.136597 -1.772255 -32.960289 -7.125000 0.000000 0.000000 77.790437 -24.027993 36.925746 -103.630245 61.484494 -79.403651 1.497802 -0.953812 0.113696 7.125000 0.000000 0.000000 
15.010582 17.455829 -23.807166 5.484963 -28.853017 -1.161778 -7.503944 0.682398 -16.747587 3.813571 12.982826 40.347175 0.921873 1.164592 6.395476 2.952500 -10.617700 -31.001100 28.937788 -6.241399 -43.364867 -8.472774 -17.712818 55.838715 2.003399 -8.529460 1.475491 -0.364500 3.878500 -10.735100 -0.038859 -2.765269 -2.419197 -0.002034 -1.233308 -5.266504 4.304358 0.163625 10.750415 4.062300 -0.525800 9.219100 -80.258559 6.144985 48.539224 116.893626 -61.598247 -87.419376 -0.248126 -1.816701 -32.196827 -7.125000 0.000000 0.000000 77.879927 -24.690226 35.859901 -104.213044 61.514015 -79.809681 1.513355 -0.899793 -1.143043 7.125000 0.000000 0.000000 
14.907631 17.503484 -23.333485 5.468530 -29.487143 -1.147064 -7.658268 1.301709 -16.157532 4.236565 13.330923 41.904424 1.265674 0.128505 7.466930 3.383000 -11.290700 -33.266600 30.353231 -6.185947 -43.145079 -6.674404 -16.631394 50.505802 1.302111 -6.606121 3.566773 -0.353900 3.821900 -10.576200 0.023716 -2.976751 -2.268186 0.128389 -1.394076 -4.562638 4.168057 0.440494 10.498261 3.920100 -0.351700 9.108400 -79.928524 4.700002 47.876802 115.516628 -61.959911 -86.500781 -0.354445 -1.827687 -31.467140 -7.125000 0.000000 0.000000 77.921863 -25.470737 35.196238 -105.754374 61.441470 -80.851913 1.519634 -0.844160 -2.260793 7.125000 0.000000 0.000000 
14.804468 17.565042 -22.847068 5.220237 -29.969023 -1.024676 -7.515310 1.664721 -15.693093 4.624658 13.665716 43.466849 1.864668 -1.677240 9.978929 3.431600 -11.362900 -33.513800 31.884510 -6.460137 -42.751918 -5.010958 -15.365539 45.100929 1.425199 -7.088635 3.861449 -1.144000 6.791800 -19.100100 0.127470 -3.305938 -2.193718 0.324334 -1.603611 -4.284025 4.073231 0.801588 10.289027 3.879700 -0.168600 9.006600 -79.824225 3.942672 46.837716 114.913935 -62.083525 -86.164225 -0.249058 -1.790696 -31.446031 -7.125000 0.000000 0.000000 77.616351 -26.191260 34.951541 -106.213295 61.445040 -81.155868 1.547143 -0.808229 -3.042434 7.125000 0.000000 0.000000 
14.697484 17.632225 -22.348020 5.117957 -30.666768 -1.026544 -7.422592 2.223871 -15.442556 4.999856 14.014898 45.156970 2.567861 -4.002412 13.501700 3.541200 -11.523500 -34.066400 33.110075 -6.711553 -41.933701 -3.356783 -13.882245 39.584101 0.697869 -5.330401 6.794662 -0.996500 6.352900 -17.811700 0.209978 -3.462215 -2.108621 0.476235 -1.727221 -3.937435 3.999532 1.153295 10.203904 3.884300 -0.005900 8.954100 -79.826054 3.401513 45.946876 114.708462 -62.132755 -86.052991 -0.195222 -1.805556 -31.859740 -7.125000 0.000000 0.000000 77.266076 -27.000089 34.868825 -107.116557 61.396563 -81.751265 1.542984 -0.801274 -3.881974 7.125000 0.000000 0.000000 
14.585617 17.692829 -21.849398 5.175988 -31.403652 -1.117247 -7.346856 2.919164 -15.555998 5.354227 14.360915 46.789176 2.987528 -5.557658 18.099654 3.671600 -11.710100 -34.714100 33.932120 -6.822311 -40.810194 -1.862843 -12.261185 34.155096 0.007399 -3.959966 10.903864 -0.691300 5.315400 -14.810400 0.268943 -3.516695 -2.011786 0.602031 -1.797501 -3.542368 4.054106 1.435030 10.057925 3.994300 0.132800 8.770900 -79.738079 2.908929 45.420580 114.615292 -62.183666 -85.967564 -0.268943 -1.845645 -32.933209 -7.125000 0.000000 0.000000 76.851819 -27.822411 35.139026 -108.194766 61.314391 -82.439070 1.547160 -0.794191 -4.631679 7.125000 0.000000 0.000000 
14.471628 17.749929 -21.354171 5.401884 -31.696310 -1.229546 -7.257201 3.289983 -15.852626 5.547637 14.645044 48.147871 3.520857 -7.408576 25.074656 2.836000 -10.424700 -30.363300 34.306200 -7.063337 -39.700847 -0.665379 -10.643595 29.070960 -0.203525 -4.219054 14.488213 -0.668900 5.230300 -14.566600 0.330811 -3.848159 -1.973503 0.761273 -1.986996 -3.403122 4.056321 1.788596 9.907840 4.060500 0.300700 8.448200 -79.625586 2.857182 44.860947 115.032998 -62.118934 -86.217315 -0.372179 -1.837185 -34.428636 -7.125000 0.000000 0.000000 76.142600 -28.822503 36.064349 -109.430242 61.181264 -83.235210 1.514869 -0.800263 -5.111820 7.125000 0.000000 0.000000 
14.345540 17.837066 -20.866693 5.919140 -31.990489 -1.658499 -7.237204 3.286158 -16.155140 5.712214 14.905505 49.173943 3.970905 -8.280779 32.771215 2.136500 -9.144800 -26.249300 34.100264 -7.308954 -38.175080 0.275138 -9.075077 24.422077 -0.377339 -4.857062 18.144377 -0.345700 3.778200 -10.453500 0.372509 -4.121880 -1.948496 1.026348 -2.140747 -3.421579 4.003011 2.089383 9.850377 4.065300 0.433500 8.237500 -79.481723 2.710516 44.131784 115.933278 -61.893775 -86.822000 -0.282893 -1.877433 -36.713592 -7.125000 0.000000 0.000000 75.325326 -29.703818 37.214728 -110.680429 61.002614 -84.052719 1.489706 -0.792834 -5.433043 7.125000 0.000000 0.000000 
14.224121 17.890983 -20.368707 6.323005 -32.745525 -2.181375 -7.223445 3.643274 -16.134076 5.661284 15.075690 50.159738 4.768992 -12.409502 38.971738 0.557300 -4.782100 -13.288000 33.749064 -7.058538 -36.221196 0.992942 -7.660405 20.441723 -0.787242 -5.128186 22.286889 -0.085600 1.887200 -5.193900 0.336978 -4.028737 -1.887143 0.774136 -2.101194 -3.379087 3.900166 2.254679 9.931212 3.982100 0.510700 8.156100 -78.979302 2.448240 43.447812 117.259882 -61.540836 -87.754670 0.004845 -1.937391 -39.464799 -7.125000 0.000000 0.000000 74.990445 -30.411199 38.144461 -111.591126 60.845913 -84.627577 1.455438 -0.820512 -5.364840 7.125000 0.000000 0.000000 
14.109601 17.911679 -19.857030 6.508225 -33.591083 -2.383607 -7.091439 3.800868 -16.231045 5.726185 15.253739 51.044326 5.075150 -15.195211 41.888551 0.076600 -1.785700 -4.913800 33.579071 -6.505743 -34.511536 1.401401 -6.599482 17.436811 -0.684790 -6.337458 23.959702 -0.127400 2.300600 -6.337300 0.276039 -3.832272 -1.852471 0.194610 -1.990527 -3.311410 3.813052 2.360835 10.043439 3.934500 0.556500 8.047000 -78.497801 2.375538 42.890414 118.273015 -61.284136 -88.476319 0.180290 -1.924166 -41.159993 -7.125000 0.000000 0.000000 74.809206 -31.170800 39.099792 -112.430205 60.688778 -85.149930 1.380731 -0.869974 -4.988571 7.125000 0.000000 0.000000 
13.996249 17.916986 -19.356815 6.841524 -33.945488 -2.498456 -7.137793 3.320062 -16.326121 5.888665 15.456642 51.981631 5.071350 -16.972857 41.772483 0.108200 -2.120500 -5.838900 33.076482 -5.861048 -33.303840 1.620274 -5.947683 15.543621 -0.588202 -7.500908 25.481954 -0.067800 1.679400 -4.620500 0.199744 -3.788884 -1.823589 -0.384462 -1.948590 -3.214051 3.819776 2.258985 10.029073 3.980700 0.508200 7.816100 -78.136911 2.306814 42.652650 118.943863 -61.141843 -88.936605 0.137018 -1.845726 -41.406083 -7.125000 0.000000 0.000000 74.457768 -31.844191 40.271347 -113.878914 60.386757 -86.081402 1.298338 -0.905994 -4.496967 7.125000 0.000000 0.000000 
13.880986 17.917517 -18.849595 8.104387 -34.210902 -3.575765 -8.050268 2.846579 -15.938187 6.223527 15.664202 53.028772 4.797401 -17.213232 37.104696 1.538600 -7.830400 -22.200100 31.509965 -5.414519 -32.149066 1.645795 -5.848940 15.147925 -0.563286 -8.448512 27.048093 -0.007500 0.560300 -1.539700 0.063799 -3.773027 -1.784654 -0.840081 -1.918696 -3.196620 3.806519 2.345398 10.172719 3.954400 0.550400 7.724100 -77.986979 2.520804 42.608770 119.695310 -60.965719 -89.427413 0.022353 -1.762125 -40.645724 -7.125000 0.000000 0.000000 74.093083 -32.446057 41.533179 -115.409741 60.020241 -87.076274 1.236247 -0.943212 -3.565451 7.125000 0.000000 0.000000 
13.776231 17.889391 -18.345984 8.907983 -34.837966 -4.621049 -8.367673 2.717110 -15.793478 6.955389 15.962795 54.097176 4.241335 -12.540389 32.421611 1.426600 -7.552700 -21.363500 30.347148 -4.524643 -30.938645 1.529248 -6.110769 15.767273 -0.579559 -9.205096 28.528865 -0.007500 0.558400 -1.534300 0.020285 -3.509737 -1.785027 -0.923243 -1.777451 -3.486349 3.680626 2.623120 10.396251 3.879300 0.653200 7.699600 -78.306355 3.021401 42.596729 120.290360 -60.798535 -89.806923 -0.110287 -1.689382 -38.953190 -7.125000 0.000000 0.000000 73.368639 -32.910275 42.696001 -116.607213 59.707011 -87.885109 1.154995 -0.997116 -2.592964 7.125000 0.000000 0.000000 
13.662666 17.875912 -17.851394 9.929084 -35.480190 -5.636015 -8.749737 2.745262 -15.909646 7.653795 16.216145 54.789598 3.329348 -6.522474 30.865620 2.096100 -9.063500 -25.994200 28.922249 -3.359149 -30.034891 1.259821 -6.763390 17.532923 -0.654068 -9.390783 29.485727 -0.397100 -4.046100 11.206300 -0.017973 -3.100914 -1.791676 -0.851826 -1.565537 -3.555848 3.443526 2.788619 10.875472 3.678500 0.686400 7.976200 -78.765086 3.440088 42.643121 120.861037 -60.627167 -90.153427 -0.238553 -1.661291 -36.579772 -7.125000 0.000000 0.000000 72.659274 -33.164151 43.636785 -117.807049 59.380468 -88.710992 1.075354 -1.044401 -1.754399 7.125000 0.000000 0.000000 
13.568843 17.779859 -17.353939 10.720343 -36.010120 -6.227365 -8.986311 2.861590 -16.776124 8.481729 16.538672 55.814193 2.062909 -0.853698 28.350874 0.646100 -5.142200 -14.314600 28.449123 -2.766326 -30.274440 1.050520 -7.473772 19.912029 -1.559211 -6.555627 30.848666 -1.727600 -8.274100 23.549800 -0.036503 -2.771254 -1.830285 -0.706809 -1.394016 -3.692945 3.360693 2.965545 11.167141 3.611700 0.739500 8.062900 -79.360148 3.998425 42.358819 121.409049 -60.457387 -90.502738 -0.311253 -1.625976 -34.470326 -7.125000 0.000000 0.000000 71.871156 -33.258481 44.727973 -119.143099 58.984321 -89.626077 1.025426 -1.069594 -0.955639 7.125000 0.000000 0.000000 
13.466635 17.709810 -16.859031 11.255818 -36.275654 -6.652309 -8.917385 2.683613 -17.711543 9.048391 16.769655 56.428293 0.856236 3.384219 25.803811 0.130200 -2.325700 -6.406700 28.086547 -2.289455 -30.228312 0.602160 -8.429650 22.910205 -1.845528 -4.883624 30.548856 -4.208800 -12.433200 37.282200 -0.072948 -2.622999 -1.845859 -0.828637 -1.298487 -3.708967 3.310486 3.003211 11.351354 3.582100 0.738400 8.105200 -79.888230 4.657185 41.690674 121.895791 -60.316733 -90.847760 -0.283580 -1.554799 -32.773146 -7.125000 0.000000 0.000000 71.279508 -33.105079 45.885582 -120.254597 58.621456 -90.363652 0.999141 -1.108961 -0.066656 7.125000 0.000000 0.000000 
13.365806 17.636259 -16.362850 11.218205 -36.297420 -6.519225 -8.470114 2.259833 -18.713931 9.447504 16.950892 56.798522 -0.258647 6.711373 23.311741 0.125800 -2.286100 -6.297100 28.397739 -1.830448 -30.263650 -0.390299 -9.664149 26.263539 0.552971 -8.896411 21.668217 -1.714800 -8.244800 23.460300 -0.115698 -2.461872 -1.847820 -1.343325 -1.176402 -3.537517 3.173173 2.899255 11.373407 3.444800 0.704100 8.050600 -80.162989 5.308425 41.305979 122.536563 -60.139249 -91.291806 -0.196664 -1.506334 -30.967062 -7.125000 0.000000 0.000000 71.150271 -32.888524 46.563319 -121.363554 58.245197 -91.090004 0.975467 -1.147565 0.564738 7.125000 0.000000 0.000000 
13.253409 17.561646 -15.873779 11.125098 -36.479036 -6.444941 -7.747228 1.809706 -19.531924 9.602872 16.997067 56.418189 -1.359323 9.971154 21.534586 0.055700 -1.523000 -4.189300 28.444959 -1.002622 -29.998055 -1.339382 -10.796952 29.616526 2.068216 -11.976705 17.386792 -1.287800 -7.190700 20.281700 -0.054858 -2.119338 -1.909038 -1.123019 -0.987733 -3.743901 3.131513 2.994853 11.424303 3.405200 0.739200 8.022200 -80.816707 6.315419 42.457999 123.945999 -59.679220 -92.102763 -0.535617 -1.553066 -33.291084 -7.125000 0.000000 0.000000 70.553411 -32.688139 47.092571 -122.443827 57.863731 -91.848271 0.953505 -1.164039 0.746442 7.125000 0.000000 0.000000 
